<?xml version="1.0" encoding="utf-8"?>
<!-- Generator: Adobe Illustrator 24.0.1, SVG Export Plug-In . SVG Version: 6.00 Build 0)  -->
<svg version="1.1" id="Layer_1" xmlns="http://www.w3.org/2000/svg" xmlns:xlink="http://www.w3.org/1999/xlink" x="0px" y="0px"
	 viewBox="0 0 24 24" style="enable-background:new 0 0 24 24;" xml:space="preserve">
<title>Artboard 12</title>
<g id="Layer_2_1_">
	<g>
		<path d="M19.2,2c0-0.4-0.1-0.7-0.4-1c-0.2-0.3-0.6-0.4-0.9-0.4c-0.4,0-0.7,0.1-0.9,0.4c-0.5,0.6-0.5,1.4,0,2l0,0
			c0.5,0.5,1.3,0.5,1.8,0.1c0,0,0,0,0.1-0.1l0,0C19.1,2.7,19.3,2.4,19.2,2z M9.5,6.1c0-0.4-0.1-0.7-0.4-1C8.9,4.8,8.6,4.7,8.2,4.7
			c-0.3,0-0.7,0.1-0.9,0.4l0,0C6.8,5.6,6.8,6.5,7.3,7c0.2,0.3,0.6,0.4,0.9,0.4c0.4,0,0.7-0.1,0.9-0.4C9.4,6.7,9.5,6.4,9.5,6.1z
			 M11.8,9.6c0.2,0,0.3,0.2,0.3,0.3s-0.2,0.3-0.3,0.3h-0.7v4.3c0.7,0.2,1.3,0.6,1.7,1.1c1.8,1.9,1.8,4.8,0,6.8
			c-1.7,1.8-4.5,1.9-6.2,0.2c-0.1-0.1-0.1-0.1-0.2-0.2c-0.9-0.9-1.3-2.1-1.3-3.4c0-0.3,0-0.6,0.1-0.9H4.8L4.1,21
			c0.2,0.1,0.3,0.2,0.4,0.3l0,0c0.5,0.6,0.5,1.4,0,2l0,0C4,24,3.2,24,2.6,23.5c0,0,0,0-0.1-0.1l0,0c-0.2-0.2-0.3-0.4-0.4-0.7H0.6
			c-0.2,0-0.3-0.2-0.3-0.3s0.2-0.3,0.3-0.3h1.6c0.1-0.3,0.2-0.5,0.4-0.7l0,0C2.8,21.2,3.1,21,3.4,21l0.8-3.2c0-0.2,0.2-0.3,0.3-0.3
			h0.8c0-0.1,0.1-0.2,0.1-0.3H4.1l-0.9,3.5c-0.1,0-0.1,0-0.2,0.1H2.6c-0.1,0.1-0.2,0.1-0.2,0.2c-0.1,0.1-0.1,0.2-0.2,0.2
			C2.1,21.3,2,21.5,2,21.6c-0.1,0-0.2,0-0.2,0H1.7C1.4,21.5,1.1,21.3,1,21l0,0c-0.2-0.3-0.2-0.7-0.1-1l0,0L2,15.5
			c0.1-0.3,0.3-0.6,0.5-0.8c0.3-0.2,0.6-0.3,1-0.3h2.1c0.2,0,0.4,0,0.6-0.1c0.1-0.1,0.2-0.2,0.2-0.3l0,0v-0.1H4
			c-0.3,0-0.6-0.1-0.8-0.4l0,0c-0.2-0.2-0.4-0.6-0.3-0.9c0-0.3,0.1-0.7,0.3-0.9l0,0c0.2-0.2,0.5-0.4,0.8-0.4h2.4l0.3-1.6l0,0l0,0
			l0,0C6.8,9,7.5,8.4,8.2,8.4h0.6c0.4,0,0.8,0.2,1,0.5c0.3,0.3,0.4,0.7,0.4,1.1l0,0v4.1c-0.2,0-0.3,0-0.5,0H9.5V10l0,0
			c0-0.2-0.1-0.5-0.2-0.7C9.2,9.2,9,9.1,8.8,9.1H8.2c-0.4,0-0.8,0.3-0.8,0.7L7,11.6c0,0.2-0.2,0.3-0.3,0.3H4c-0.1,0-0.2,0-0.3,0.1
			l-0.1,0.1l0,0c-0.1,0.1-0.2,0.3-0.2,0.4c0,0.2,0.1,0.3,0.2,0.4l0,0C3.7,13,3.7,13,3.8,13S4,13,4,13.1h3.8l0.4-1.6
			c0-0.2,0.2-0.3,0.4-0.2s0.3,0.2,0.2,0.4l-0.5,1.8c0,0.2-0.2,0.3-0.3,0.3H7.2l-0.1,0.3l0,0c-0.1,0.3-0.2,0.5-0.4,0.7
			c-0.3,0.2-0.6,0.3-1,0.3H3.6c-0.2,0-0.5,0-0.7,0.2c-0.1,0.1-0.2,0.2-0.3,0.4l-1.2,4.8l0,0c0,0.1,0,0.2,0,0.3c0,0.1,0,0.1,0.1,0.2
			l0,0c0.1,0.1,0.2,0.2,0.3,0.3l0,0c0.1,0,0.3,0,0.4-0.1c0.1-0.1,0.2-0.1,0.2-0.2v-0.1l0,0l0,0l1-3.9c0-0.1,0.2-0.3,0.3-0.2h2
			c0.3-0.5,0.5-0.8,0.7-1c0.8-0.9,2-1.4,3.2-1.4c0.3,0,0.5,0,0.8,0.1V10c0-0.2,0.1-0.3,0.3-0.3L11.8,9.6z M12.4,16.3
			c-1.4-1.5-3.8-1.6-5.3-0.2c-0.1,0-0.1,0.1-0.2,0.2c-0.7,0.8-1.1,1.8-1.1,2.9s0.4,2.1,1.1,2.9c1.4,1.5,3.8,1.6,5.3,0.2
			c0.1-0.1,0.2-0.1,0.2-0.2c0.7-0.8,1.2-1.8,1.1-2.9C13.6,18.1,13.2,17,12.4,16.3z M4.1,22c-0.1-0.1-0.3-0.2-0.5-0.2
			S3.2,21.9,3.1,22l0,0c-0.1,0.1-0.2,0.3-0.2,0.5S3,22.8,3.1,23l0,0c0.1,0.1,0.3,0.2,0.5,0.2S4,23.1,4.1,23s0.2-0.3,0.2-0.5
			C4.3,22.3,4.2,22.1,4.1,22z M9.6,4.6c0.8,0.8,0.8,2.1,0,2.9C9.2,7.9,8.7,8.1,8.2,8.1s-1-0.2-1.4-0.6C6,6.7,6,5.4,6.8,4.6l0,0
			c0.7-0.8,1.9-0.8,2.7-0.1C9.5,4.6,9.6,4.6,9.6,4.6L9.6,4.6z M18.5,6.8c0.1-0.2,0.2-0.2,0.4-0.2c0,0,0.1,0,0.1,0.1
			c0.2,0.1,0.2,0.3,0.1,0.4l0,0l-1.4,2.7v3.1l0,0V13l-2.1,5v4.7l0,0c0,0.1,0.1,0.3,0.2,0.4l0,0c0.1,0.1,0.2,0.2,0.4,0.2l0,0
			c0.2,0,0.3-0.1,0.4-0.2s0.2-0.3,0.2-0.4l0,0v-4.5v-0.1l0,0l1.7-3.4c0.1-0.2,0.3-0.2,0.4-0.1l0,0c0.1,0,0.2,0.1,0.2,0.2l0.9,4.1
			l2.7,4.2c0.1,0.1,0.2,0.2,0.4,0.2c0.1,0,0.3,0,0.4-0.1l0,0c0.2-0.2,0.3-0.6,0.1-0.8l0,0l-2.6-4v-0.1l-0.9-5.4V5.8
			c0-0.2-0.1-0.4-0.2-0.6C19.8,5.1,19.6,5,19.4,5l0,0c-0.4,0-0.8,0-1.1,0.1C18,5.3,17.7,5.6,17.5,6l0,0l-1.3,2.2
			c0,0.1-0.1,0.1-0.1,0.1l-2.6,1.4h-0.1c-0.1,0-0.3,0.1-0.3,0.3C13,10.2,13,10.4,13,10.5l0,0c0,0.1,0.1,0.3,0.3,0.3
			c0.1,0.1,0.3,0.1,0.4,0.1l3.5-1.5L18.5,6.8z M17,10.2l-3.1,1.4h-0.1c-0.3,0.1-0.6,0-0.9-0.1c-0.3-0.2-0.5-0.4-0.6-0.8l0,0
			c-0.1-0.3,0-0.7,0.1-1c0.2-0.3,0.4-0.5,0.7-0.6l2.5-1.3l1.2-2.1l0,0c0.2-0.5,0.6-0.9,1-1.2c0.4-0.2,0.9-0.2,1.4-0.2h0.1
			c0.4,0,0.7,0.2,0.9,0.4c0.2,0.3,0.3,0.6,0.3,1v0.1l0,0v6.9l0,0l0.9,5.2l2.6,3.9c0.2,0.3,0.3,0.6,0.3,0.9s-0.2,0.6-0.4,0.9l0,0
			c-0.2,0.2-0.6,0.3-0.9,0.3s-0.6-0.2-0.8-0.4l0,0l0,0l-2.8-4.3l-0.1-0.1l-0.7-3.3l-1.3,2.5v4.4l0,0c0,0.3-0.1,0.7-0.4,0.9l0,0
			C16.7,23.8,16.4,24,16,24l0,0c-0.3,0-0.6-0.1-0.9-0.4l0,0c0-0.3-0.1-0.6-0.1-0.9l0,0v-4.8c0-0.1,0-0.1,0-0.2l2-5V10.2z M19.3,0.5
			c0.4,0.4,0.6,0.9,0.6,1.5c0,0.5-0.2,1.1-0.6,1.5l0,0c-0.7,0.8-1.9,0.8-2.7,0.1l-0.1-0.1l0,0C16.2,3.1,16,2.5,16,2s0.2-1.1,0.6-1.5
			C17.3-0.2,18.5-0.3,19.3,0.5L19.3,0.5z"/>
		<path d="M23.1,24.1H23c-0.3,0-0.7-0.2-0.9-0.5l-2.8-4.3c0-0.1-0.1-0.1-0.1-0.2l-0.6-2.9l-1.1,2.2v4.3c0,0.4-0.1,0.7-0.4,1
			c-0.2,0.3-0.6,0.4-0.9,0.4c-0.4,0-0.7-0.1-1-0.4c-0.2-0.3-0.3-0.6-0.3-0.9V18c0-0.1,0-0.1,0-0.2l2-5v-2.3l-3,1.4h-0.1
			c-0.3,0.1-0.7,0-1-0.2s-0.5-0.5-0.6-0.8c-0.1-0.2-0.1-0.4,0-0.6c-0.1,0.2-0.2,0.3-0.4,0.3h-0.5v4.1c0.6,0.2,1.2,0.6,1.7,1.1
			c1.8,2,1.8,5,0,6.9c-1.7,1.8-4.6,1.9-6.4,0.2c-0.1-0.1-0.1-0.1-0.2-0.2c-0.9-1-1.4-2.2-1.4-3.5c0-0.3,0-0.5,0.1-0.8H4.9l-0.7,2.7
			c0.1,0.1,0.3,0.2,0.4,0.3c0.6,0.6,0.6,1.6,0,2.2s-1.5,0.6-2.1,0.1c0,0,0,0-0.1-0.1C2.2,23.4,2.1,23.2,2,23H0.6
			c-0.3,0-0.5-0.2-0.5-0.5S0.3,22,0.6,22h1.5c0.1-0.2,0.2-0.5,0.4-0.6C2.7,21.2,3,21,3.4,20.9l0.8-3.1c0-0.2,0.2-0.4,0.4-0.4h0.7
			v-0.1H4.2l-0.9,3.5H3.2c-0.1,0-0.1,0-0.2,0H2.9H2.6l0,0C2.5,20.9,2.5,21,2.4,21l-0.1,0.1c-0.1,0.1-0.1,0.2-0.2,0.3v0.1H2
			c-0.1,0-0.2,0-0.3,0H1.6l0,0C1.3,21.6,1,21.4,0.8,21c-0.2-0.3-0.2-0.7-0.1-1.1l1.2-4.5C2,15,2.2,14.7,2.5,14.5s0.7-0.3,1.1-0.3
			h2.1c0.2,0,0.4,0,0.6-0.1c0.1-0.1,0.1-0.2,0.1-0.3l0,0H4c-0.4,0-0.7-0.2-0.9-0.4c-0.3-0.3-0.4-0.6-0.4-1s0.1-0.7,0.4-1
			C3.3,11.1,3.7,11,4,11h2.3l0.3-1.5c0.1-0.8,0.8-1.3,1.6-1.3l0,0h0.6c0.4,0,0.8,0.2,1.1,0.5s0.4,0.8,0.4,1.2v4.2h-0.1
			c-0.2,0-0.3,0-0.5,0H9.4V10c0-0.2-0.1-0.4-0.2-0.6C9.1,9.3,9,9.2,8.8,9.2l0,0H8.2c-0.3,0-0.6,0.3-0.7,0.6l-0.3,1.8
			C7.2,11.8,7,12,6.8,12H4c-0.1,0-0.2,0-0.2,0.1l-0.1,0.1c-0.1,0.1-0.1,0.2-0.1,0.3s0,0.2,0.1,0.3l0.1,0.1c0.1,0,0.1,0,0.2,0h3.7
			l0.4-1.5c0.1-0.2,0.3-0.4,0.6-0.3c0.2,0.1,0.4,0.3,0.3,0.6l-0.5,1.8c0,0.2-0.2,0.4-0.4,0.4H7.3l-0.1,0.2c-0.1,0.3-0.2,0.6-0.4,0.8
			c-0.3,0.2-0.7,0.3-1.1,0.3H3.6c-0.2,0-0.4,0-0.6,0.1c-0.1,0.1-0.2,0.2-0.2,0.3l-1.2,4.8c0,0.1,0,0.1,0,0.2v0.1
			C1.7,20.9,1.8,21,1.9,21s0.2,0,0.3,0c0,0,0-0.1,0.1-0.1l0.1-0.1v-0.1l1-3.9c0-0.2,0.2-0.3,0.4-0.3h1.9c0.2-0.3,0.4-0.5,0.6-0.8
			c0.9-0.9,2.1-1.4,3.3-1.4c0.2,0,0.5,0,0.7,0.1V10c0-0.3,0.2-0.5,0.5-0.5h1c0.3,0,0.5,0.2,0.5,0.5c0-0.1,0.1-0.2,0.1-0.3
			c0.2-0.3,0.4-0.5,0.8-0.6l2.5-1.3l1.1-2.1c0.2-0.5,0.6-0.9,1-1.2c0.5-0.2,1-0.3,1.5-0.2h0.1c0.4,0,0.8,0.2,1,0.5s0.4,0.7,0.4,1.1
			v7l0.8,5.2l2.5,3.8c0.2,0.3,0.3,0.6,0.3,1s-0.2,0.7-0.5,0.9C23.7,23.9,23.4,24.1,23.1,24.1z M18.7,15.4l0.8,3.6v0.1l2.8,4.3
			c0.2,0.2,0.4,0.3,0.7,0.4c0.3,0,0.6-0.1,0.8-0.3c0.2-0.2,0.4-0.5,0.4-0.8s-0.1-0.6-0.2-0.8L21.3,18l-0.9-5.2v-7
			c0-0.3-0.1-0.7-0.3-0.9c-0.2-0.2-0.5-0.4-0.8-0.4h-0.1c-0.5,0-0.9,0-1.4,0.2c-0.4,0.3-0.7,0.7-0.9,1.1L15.7,8l-2.6,1.4
			c-0.3,0.1-0.5,0.3-0.6,0.5c-0.2,0.3-0.2,0.6-0.1,0.9c0.1,0.3,0.3,0.5,0.5,0.7c0.2,0.1,0.5,0.2,0.8,0.1h0.1l3.3-1.5v2.8l-2,5
			c0,0,0,0,0,0.1l0,0v4.8c0,0.3,0.1,0.6,0.3,0.8c0.2,0.2,0.5,0.3,0.8,0.3l0,0c0.3,0,0.6-0.1,0.7-0.3c0.2-0.2,0.3-0.5,0.3-0.8v-4.4
			L18.7,15.4z M4.7,18.1h0.6v0.1c-0.1,0.3-0.1,0.6-0.1,0.9c0,1.2,0.5,2.4,1.3,3.3c0.1,0.1,0.1,0.1,0.2,0.2c1.7,1.6,4.4,1.5,6.1-0.2
			c1.7-1.9,1.7-4.7,0-6.6c-0.5-0.5-1.1-0.9-1.7-1.1H11v-4.5h0.8c0.1,0,0.2-0.1,0.2-0.2c0-0.1-0.1-0.2-0.2-0.2h-1
			c-0.1,0-0.2,0.1-0.2,0.2v4.6h-0.1c-0.3-0.1-0.5-0.1-0.8-0.1c-1.2,0-2.3,0.5-3.1,1.4c-0.2,0.2-0.4,0.5-0.6,0.8v0.1H3.8l0,0
			c-0.1,0-0.2,0.1-0.2,0.1l-1,3.8H3h0.1L4,17.1h1.7l-0.1,0.2v0.1c0,0.1-0.1,0.1-0.1,0.2v0.1H4.6c-0.1,0-0.2,0.1-0.2,0.2l-0.8,3.3
			H3.5c-0.3,0-0.6,0.2-0.8,0.4c-0.2,0.2-0.3,0.4-0.3,0.6v0.1H0.6c-0.1,0-0.2,0.1-0.2,0.2s0.1,0.2,0.2,0.2h1.7v0.1
			c0.1,0.2,0.2,0.4,0.3,0.6c0,0,0,0,0.1,0.1c0.5,0.5,1.2,0.4,1.7-0.1s0.5-1.3,0-1.8c-0.1-0.1-0.2-0.2-0.4-0.3H3.9L4.7,18.1z
			 M1.7,21.5L1.7,21.5c0.1,0,0.1,0,0.2,0c0-0.1,0.1-0.1,0.1-0.2c-0.1,0-0.1,0-0.2,0c-0.2,0-0.3-0.2-0.4-0.3c0-0.1-0.1-0.1-0.1-0.2
			s0-0.2,0-0.3l1.2-4.8c0-0.2,0.2-0.4,0.3-0.5C3,15.1,3.3,15,3.5,15h2.1c0.3,0,0.7-0.1,0.9-0.2C6.8,14.5,7,14.3,7,14l0.1-0.4h1
			c0.1,0,0.2-0.1,0.2-0.2l0.5-1.8c0-0.1,0-0.2-0.1-0.3c-0.1,0-0.2,0-0.2,0.2l-0.4,1.7H4c-0.1,0-0.2,0-0.3-0.1
			c-0.1,0-0.1-0.1-0.2-0.2c-0.1-0.1-0.2-0.3-0.2-0.5s0.1-0.4,0.2-0.5l0.1-0.1c0.1-0.1,0.2-0.1,0.4-0.1h2.7c0.1,0,0.2-0.1,0.2-0.2
			l0.3-1.8C7.3,9.3,7.7,9,8.2,9h0.6l0,0C9,9,9.2,9.1,9.4,9.3C9.6,9.5,9.7,9.7,9.6,10v4c0.1,0,0.3,0,0.4,0v-4c0-0.4-0.1-0.7-0.3-1
			S9.2,8.6,8.8,8.6l0,0H8.2C7.5,8.5,7,9,6.8,9.7l-0.4,1.7H4c-0.3,0-0.6,0.1-0.8,0.3s-0.3,0.5-0.3,0.8s0.1,0.6,0.3,0.8
			s0.5,0.3,0.8,0.3h2.6v0.3c0,0.2-0.1,0.3-0.2,0.4c-0.2,0.1-0.5,0.2-0.7,0.2H3.6c-0.3,0-0.7,0.1-0.9,0.2c-0.3,0.2-0.4,0.4-0.5,0.7
			L0.9,20c-0.1,0.3,0,0.6,0.1,0.9C1.2,21.2,1.4,21.4,1.7,21.5z M9.7,23.4c-0.1,0-0.1,0-0.2,0c-1,0-2-0.5-2.7-1.2
			c-0.8-0.8-1.2-1.9-1.2-3s0.4-2.2,1.2-3C6.9,16.1,6.9,16,7,16c1.6-1.5,4-1.4,5.5,0.2c0.8,0.8,1.2,1.9,1.2,3s-0.4,2.2-1.2,3
			c-0.1,0.1-0.2,0.2-0.2,0.2C11.6,23,10.6,23.4,9.7,23.4z M9.7,15.2c-0.9,0-1.8,0.3-2.5,1c-0.1,0.1-0.1,0.1-0.2,0.2
			c-0.7,0.8-1.1,1.8-1.1,2.8c0,1.1,0.4,2,1.1,2.8c0.7,0.7,1.5,1.1,2.5,1.2c1,0,1.9-0.3,2.6-0.9c0.1-0.1,0.1-0.1,0.2-0.2
			c0.7-0.8,1.1-1.8,1.1-2.8c0-1.1-0.4-2.1-1.1-2.8l0,0C11.6,15.6,10.6,15.2,9.7,15.2z M16.2,23.4c-0.2,0-0.4-0.1-0.5-0.2
			s-0.2-0.3-0.2-0.5v-4.8l2.1-5c0,0,0,0,0-0.1V9.7l0,0L19,7c0,0,0-0.1,0-0.2s0-0.1-0.1-0.1h-0.1h-0.1l-0.1,0.1l0,0l-1.4,2.7L13.7,11
			c-0.2,0-0.4,0-0.5-0.1c-0.2-0.1-0.3-0.2-0.3-0.4s0-0.4,0.1-0.5c0.1-0.2,0.2-0.3,0.4-0.3l0,0h0.1l2.6-1.4l0.1-0.1L17.5,6
			c0.2-0.4,0.4-0.7,0.8-1l0,0c0.4-0.1,0.8-0.2,1.2-0.1c0.2,0,0.4,0.1,0.5,0.3c0.1,0.2,0.2,0.4,0.2,0.7V13l0.9,5.3v0.1l2.5,3.9
			c0.2,0.3,0.2,0.7-0.1,1c-0.1,0.1-0.3,0.2-0.5,0.2s-0.3-0.1-0.4-0.2L19.9,19L19,14.9c0-0.1-0.1-0.1-0.1-0.2c-0.1-0.1-0.2,0-0.3,0.1
			l-1.7,3.4c0,0,0,0,0,0.1l0,0v4.5c0,0.2-0.1,0.4-0.2,0.5C16.6,23.3,16.4,23.4,16.2,23.4z M15.8,18v4.7c0,0.1,0.1,0.2,0.1,0.3
			c0.1,0.1,0.2,0.1,0.3,0.1s0.2,0,0.3-0.1c0.1-0.1,0.1-0.2,0.1-0.3v-4.4c0-0.1,0-0.1,0-0.2l1.7-3.5c0.1-0.2,0.4-0.3,0.6-0.2l0,0
			c0.1,0.1,0.2,0.2,0.2,0.3l0.9,4.1l2.7,4.2c0.1,0.1,0.2,0.1,0.3,0.1c0.1,0,0.2,0,0.3-0.1c0.2-0.2,0.2-0.4,0.1-0.6l-2.5-3.9
			c0-0.1-0.1-0.1-0.1-0.2L20,12.9V5.8c0-0.2,0-0.4-0.2-0.5c-0.1-0.1-0.2-0.2-0.3-0.2c-0.4,0-0.7,0-1.1,0.1c-0.3,0.2-0.5,0.5-0.7,0.9
			l-1.3,2.2c0,0.1-0.1,0.1-0.2,0.2L13.5,10h-0.1c-0.1,0-0.2,0.1-0.2,0.2c-0.1,0.1-0.1,0.2,0,0.3c0,0.1,0.1,0.2,0.2,0.3
			c0.1,0.1,0.2,0.1,0.3,0.1L17,9.3l1.3-2.6c0-0.1,0.1-0.2,0.2-0.2s0.2-0.1,0.3,0c0,0,0.1,0,0.1,0.1c0.1,0,0.2,0.1,0.2,0.3
			c0,0.1,0,0.2,0,0.3l0,0l0,0l-1.4,2.6v3c0,0,0,0.1,0,0.2L15.8,18z M3.5,23.4L3.5,23.4c-0.2,0-0.5-0.1-0.6-0.3
			c-0.1-0.1-0.2-0.3-0.2-0.5s0.1-0.5,0.2-0.6c0.2-0.2,0.4-0.3,0.6-0.3l0,0c0.2,0,0.4,0.1,0.6,0.3c0.1,0.1,0.2,0.3,0.3,0.5
			c0,0.2-0.1,0.5-0.3,0.6C4,23.3,3.8,23.4,3.5,23.4z M3.5,21.9c-0.2,0-0.3,0.1-0.4,0.2c-0.1,0.1-0.2,0.3-0.2,0.5
			c0,0.1,0.1,0.3,0.2,0.4c0.1,0.1,0.3,0.2,0.4,0.2l0,0c0.2,0,0.3-0.1,0.4-0.2c0.1-0.1,0.2-0.3,0.2-0.5c0-0.1-0.1-0.3-0.2-0.4l0,0
			C3.9,22,3.7,21.9,3.5,21.9L3.5,21.9z M8.2,8.2C7.7,8.2,7.1,8,6.7,7.6c-0.8-0.9-0.8-2.2,0-3.1c0.8-0.8,2-0.9,2.8-0.1l0,0l0,0
			l0.1,0.1c0.8,0.9,0.8,2.2,0,3.1C9.3,8,8.8,8.2,8.2,8.2z M8.2,4.1c-0.5,0-0.9,0.2-1.3,0.6c-0.7,0.8-0.7,2,0,2.7
			C7.3,7.8,7.7,8,8.2,8s1-0.2,1.3-0.6c0.7-0.7,0.7-1.9,0.1-2.6l0,0L9.5,4.7L9.4,4.6C9.1,4.3,8.6,4.1,8.2,4.1z M8.2,7.5
			c-0.4,0-0.8-0.2-1-0.4C6.7,6.5,6.7,5.6,7.2,5c0.3-0.3,0.6-0.4,1-0.4l0,0c0.4,0,0.8,0.2,1,0.4c0.3,0.3,0.4,0.7,0.4,1.1l0,0
			c0,0.4-0.2,0.7-0.4,1S8.6,7.5,8.2,7.5z M8.2,4.8L8.2,4.8c-0.3,0-0.6,0.1-0.8,0.4C6.9,5.7,6.9,6.5,7.4,7c0.2,0.2,0.5,0.4,0.8,0.4
			S8.8,7.3,9,7c0.2-0.2,0.3-0.5,0.3-0.9l0,0c0-0.3-0.1-0.7-0.3-0.9C8.8,4.9,8.5,4.8,8.2,4.8z M17.9,4.2c-0.5,0-1-0.2-1.4-0.5
			l-0.1-0.1c-0.4-0.4-0.6-1-0.6-1.5c0-0.6,0.2-1.1,0.6-1.6c0.8-0.8,2-0.9,2.8-0.1l0.1,0.1l0,0C19.8,0.9,20,1.4,20,2
			s-0.2,1.1-0.6,1.5S18.6,4.2,17.9,4.2C18,4.2,18,4.2,17.9,4.2z M17.9,0.1c-0.5,0-0.9,0.2-1.3,0.6C16.3,1,16.1,1.5,16.1,2
			s0.2,1,0.5,1.4l0.1,0.1C17,3.8,17.5,4,18,4s0.9-0.2,1.2-0.6C19.6,3,19.8,2.5,19.8,2s-0.2-1-0.5-1.4l-0.1-0.1
			C18.8,0.2,18.4,0.1,17.9,0.1z M17.9,3.5c-0.4,0-0.7-0.1-1-0.4c-0.6-0.6-0.6-1.6,0-2.2c0.3-0.3,0.6-0.4,1-0.4l0,0
			c0.4,0,0.8,0.2,1,0.4c0.3,0.3,0.4,0.7,0.4,1.1s-0.2,0.8-0.4,1.1c0,0,0,0-0.1,0.1C18.6,3.4,18.3,3.5,17.9,3.5z M17.9,0.7
			c-0.3,0-0.6,0.1-0.8,0.4c-0.5,0.5-0.5,1.3,0,1.8c0.4,0.5,1.2,0.5,1.6,0.1l0,0c0.3-0.3,0.4-0.7,0.4-1l0,0c0-0.3-0.1-0.7-0.3-0.9
			C18.6,0.9,18.3,0.7,17.9,0.7L17.9,0.7z"/>
	</g>
</g>
</svg>
