<svg xmlns="http://www.w3.org/2000/svg" viewBox="0 0 24 24"><title>Artboard 3</title><g id="Layer_2" data-name="Layer 2"><path d="M16,16a8,8,0,0,0-8,8H24A8,8,0,0,0,16,16Zm0,2a6,6,0,0,1,5.66,4H10.34A6,6,0,0,1,16,18Z"/><path d="M18,5.4a5.08,5.08,0,0,0-4,0A5,5,0,0,0,11,10a5.11,5.11,0,0,0,.41,2,5,5,0,0,0,9.44-3.25A5,5,0,0,0,18,5.4Zm-1.07,7.46A3,3,0,1,1,18.84,11,2.9,2.9,0,0,1,16.91,12.86Z"/><path d="M13.56,0H2.44A2.44,2.44,0,0,0,0,2.44V9.56A2.44,2.44,0,0,0,2.44,12H3.55l2.94,4.9a1,1,0,0,0,.86.48h.14a1,1,0,0,0,.82-.74L9.51,12h4.05l.08-.16A3,3,0,0,1,13,10H8.76a1,1,0,0,0-1,.76L7.45,12,7,13.82,5.88,12,5,10.49A1,1,0,0,0,4.1,10H2.44A.44.44,0,0,1,2,9.56V2.44A.44.44,0,0,1,2.44,2H13.56a.44.44,0,0,1,.44.44V7.77A3,3,0,0,1,16,7V2.44A2.44,2.44,0,0,0,13.56,0Z"/></g></svg>