<svg xmlns="http://www.w3.org/2000/svg" viewBox="0 0 24 24"><title>Artboard 10</title><g id="Layer_2" data-name="Layer 2"><path d="M16.5,16l-.61-.18a5.27,5.27,0,0,1,.65-1.2l.1-.16a4.92,4.92,0,0,0,.91-2.1,2.38,2.38,0,0,1,.45-.86A4.54,4.54,0,0,0,18.73,8a1.76,1.76,0,0,0-.09-.21,1.74,1.74,0,0,1-.22-.63,8.88,8.88,0,0,0-.36-3.39A5.63,5.63,0,0,0,14.67.34,7.24,7.24,0,0,0,12-.07,7.27,7.27,0,0,0,9.33.34,5.63,5.63,0,0,0,5.94,3.73a9.08,9.08,0,0,0-.36,3.39,1.74,1.74,0,0,1-.22.63A1.76,1.76,0,0,0,5.27,8,4.54,4.54,0,0,0,6,11.45a2.38,2.38,0,0,1,.45.86,4.92,4.92,0,0,0,.91,2.1l.11.16a5.5,5.5,0,0,1,.64,1.2L7.5,16C4.15,16.94.88,18-.26,19.38a2.27,2.27,0,0,0-.53,2.23,2.79,2.79,0,0,0,2.2,1.69A53,53,0,0,0,12,24a53.13,53.13,0,0,0,10.6-.7,2.79,2.79,0,0,0,2.19-1.69,2.27,2.27,0,0,0-.53-2.23C23.12,18,19.86,16.94,16.5,16Zm6.79,5.15c-.07.22-.38.51-1,.65A52.1,52.1,0,0,1,12,22.41a51.92,51.92,0,0,1-10.26-.66c-.65-.14-1-.43-1-.65a.79.79,0,0,1,.23-.69c1-1.16,5.36-2.45,7-2.93.6-.18.85-.26,1-.32a1.24,1.24,0,0,0,.72-.8,3.59,3.59,0,0,0-.87-2.67l-.11-.16A3.33,3.33,0,0,1,8,12a3.67,3.67,0,0,0-.85-1.63A3.51,3.51,0,0,1,6.76,8.5l0,0A2.91,2.91,0,0,0,7.15,7,7.7,7.7,0,0,1,7.44,4.2,4.07,4.07,0,0,1,9.87,1.83,5.79,5.79,0,0,1,12,1.52a5.79,5.79,0,0,1,2.13.31A4.07,4.07,0,0,1,16.56,4.2,7.7,7.7,0,0,1,16.85,7a3,3,0,0,0,.37,1.45l0,0a3.43,3.43,0,0,1-.37,1.84A3.87,3.87,0,0,0,16,12a3.33,3.33,0,0,1-.68,1.53l-.1.17a3.53,3.53,0,0,0-.88,2.66,1.27,1.27,0,0,0,.72.8c.14.06.39.14,1,.32,1.65.48,6,1.77,7,2.93A.76.76,0,0,1,23.29,21.1ZM-.82,19.86a19.56,19.56,0,0,1-2-.3c-.44-.09-.61-.28-.63-.36s.05-.23.14-.33C-2.56,18,.82,17,1.94,16.71c.48-.15.66-.2.77-.25a1.12,1.12,0,0,0,.65-.73,2.88,2.88,0,0,0-.7-2.22l-.06-.08a2.4,2.4,0,0,1-.49-1.09A3.07,3.07,0,0,0,1.43,11a2.49,2.49,0,0,1-.26-1.23,2.45,2.45,0,0,0,.31-1.2,5.42,5.42,0,0,1,.21-2A2.84,2.84,0,0,1,3.41,4.86,4.18,4.18,0,0,1,5,4.63a7.41,7.41,0,0,1,.78,0A.79.79,0,0,0,6.61,4a.81.81,0,0,0-.69-.89A8.75,8.75,0,0,0,5,3a5.8,5.8,0,0,0-2.08.32A4.42,4.42,0,0,0,.18,6.05,7.09,7.09,0,0,0-.1,8.69a1.33,1.33,0,0,1-.14.38,1,1,0,0,0-.08.19,3.6,3.6,0,0,0,.59,2.83,1.58,1.58,0,0,1,.29.56,3.85,3.85,0,0,0,.72,1.65l.08.13a4.34,4.34,0,0,1,.39.67l-.26.08c-2.57.76-5.07,1.6-6,2.65a1.93,1.93,0,0,0-.44,1.88,2.29,2.29,0,0,0,1.8,1.41c.62.13,1.32.23,2.13.32H-.9a.78.78,0,0,0,.78-.71A.78.78,0,0,0-.82,19.86Z"/></g></svg>