<svg xmlns="http://www.w3.org/2000/svg" viewBox="0 0 24 24"><title>Artboard 11</title><g id="Layer_2" data-name="Layer 2"><path d="M20,17.77l-1.51-4.14a1.26,1.26,0,0,0-.13-.34l0-.13a.89.89,0,0,0-1-.58H11.93l-.18-1.21h0l-.19-1.11L11.38,9H13.6a.63.63,0,1,0,0-1.25H11.19l-.33-2.2a1.27,1.27,0,0,0-2.52.38L9,10.51a7,7,0,1,0,9,7.06l.3.81A.89.89,0,1,0,20,17.77Zm-9,5.4A5.93,5.93,0,0,1,9.2,11.59l.39,2.57a1.28,1.28,0,0,0,1.34,1.09h5.64A5.94,5.94,0,0,1,11,23.17Z"/><circle cx="10.53" cy="2.38" r="1.88"/></g></svg>