<svg xmlns="http://www.w3.org/2000/svg" viewBox="0 0 24 30.43"><defs><style>.cls-1,.cls-2{fill:none;}.cls-1,.cls-3{stroke:#000;}.cls-1,.cls-2,.cls-3{stroke-miterlimit:10;}.cls-1{stroke-width:2px;}.cls-2{stroke:#fff;}.cls-4{font-size:17.63px;font-family:AvenirNext-Bold, Avenir Next;font-weight:700;}.cls-4,.cls-5{fill:#fff;}</style></defs><title>Asset 9</title><g id="Layer_2" data-name="Layer 2"><g id="Layer_2-2" data-name="Layer 2"><path d="M15.59,19.43a9,9,0,0,1-7.18,0H0v11H24v-11Zm6.41,9H2v-7H22Z"/><line class="cls-1" x1="6" y1="24.93" x2="18" y2="24.93"/><path class="cls-2" d="M12,.5A10.74,10.74,0,0,0,8.65,21.43a10.7,10.7,0,0,0,10.27-2A10.72,10.72,0,0,0,12,.5Zm3.59,18.93A8.94,8.94,0,1,1,21,11.23,8.94,8.94,0,0,1,15.59,19.43Z"/><circle class="cls-3" cx="12" cy="12.68" r="8.5"/><text class="cls-4" transform="translate(7.27 19.11) scale(0.91 1)">S</text><rect class="cls-5" x="11.06" y="19.11" width="2" height="3.31"/><rect class="cls-5" x="11.06" y="3.68" width="2" height="3.31"/></g></g></svg>