<svg xmlns="http://www.w3.org/2000/svg" viewBox="0 0 24 24"><defs><style>.cls-1{font-size:8.47px;font-family:Montserrat-ExtraBold, Montserrat;font-weight:800;}</style></defs><title>Artboard 4</title><g id="Layer_2" data-name="Layer 2"><path d="M21.16,7.06h-1.4V.71a.7.7,0,0,0-.7-.71H4.43a.7.7,0,0,0-.7.71V7.06H2.84A2.83,2.83,0,0,0,0,9.88v11.3A2.83,2.83,0,0,0,2.84,24H21.16A2.83,2.83,0,0,0,24,21.18V9.88A2.83,2.83,0,0,0,21.16,7.06Zm-.37,1.41-1,.87V8.47ZM5.13,1.41H18.34v9.14h0L12,16,5.13,10.54V1.41ZM2.58,8.49l.26,0h.89v.94L2.58,8.49ZM1.43,21.18V9.88a1.62,1.62,0,0,1,.07-.44l2.51,2,0,0H4l3.78,3-6.36,7A1.73,1.73,0,0,1,1.43,21.18Zm19.73,1.41H2.84a1.29,1.29,0,0,1-.4-.06l6.48-7.15,2.64,2.11a.66.66,0,0,0,.44.16.73.73,0,0,0,.46-.17L15,15.3h0l6.56,7.23A1.29,1.29,0,0,1,21.16,22.59Zm1.41-1.41a1.73,1.73,0,0,1,0,.32l-6.47-7.12,3.49-3h0L22.29,9a1.39,1.39,0,0,1,.28.84Z"/><text class="cls-1" transform="translate(7.61 9.85)">@</text></g></svg>