<svg xmlns="http://www.w3.org/2000/svg" viewBox="0 0 24 24"><title>Artboard 15</title><g id="Layer_2" data-name="Layer 2"><path d="M2.52,14.79l0,.06a10.18,10.18,0,0,0,3.3,3.45v.89l-1.21,1.2a.31.31,0,0,0,.44.44l.77-.77v1.16l-1.21,1.2a.31.31,0,0,0,.44.44l.77-.77v1a.31.31,0,1,0,.62,0v-.94l.69.7a.33.33,0,0,0,.22.09.31.31,0,0,0,.22-.09.31.31,0,0,0,0-.44L6.48,21.29V20.13l.69.7a.33.33,0,0,0,.22.09.31.31,0,0,0,.22-.09.31.31,0,0,0,0-.44L6.48,19.26v-.59a10.05,10.05,0,0,0,4.59,1.25v.22L9.9,21.31a.31.31,0,1,0,.44.44l.73-.74v1.16L9.9,23.34a.31.31,0,1,0,.44.44l.73-.74v.83a.31.31,0,0,0,.62,0V23l.73.74a.31.31,0,0,0,.44,0,.31.31,0,0,0,0-.44l-1.17-1.17V21l.73.74a.31.31,0,0,0,.44,0,.31.31,0,0,0,0-.44l-1.17-1.17v-.22a10.09,10.09,0,0,0,4.6-1.25v.55l-1.17,1.17a.31.31,0,0,0,0,.44.3.3,0,0,0,.43,0l.74-.74v1.16l-1.17,1.17a.31.31,0,0,0,0,.44.3.3,0,0,0,.43,0l.74-.73v1a.31.31,0,0,0,.62,0v-1l.73.73a.31.31,0,0,0,.44,0,.31.31,0,0,0,0-.44l-1.17-1.17V20.09l.73.74a.31.31,0,0,0,.44,0,.31.31,0,0,0,0-.44l-1.17-1.17V18.3a10.25,10.25,0,0,0,3.29-3.45l0-.06a10.15,10.15,0,0,0,0-10.15l0-.06A10.2,10.2,0,0,0,11.38-.5h0A10.2,10.2,0,0,0,2.56,4.58l0,.06a10.15,10.15,0,0,0,0,10.15ZM14.43,3.51a3.37,3.37,0,0,0-.73.32,5.69,5.69,0,0,0-2.32,3.7,5.69,5.69,0,0,0-2.32-3.7,3.6,3.6,0,0,0-.73-.32A8.81,8.81,0,0,1,11.38.18,8.81,8.81,0,0,1,14.43,3.51Zm-3,15.74a8.74,8.74,0,0,1-3.05-3.33,3.6,3.6,0,0,0,.73-.32,5.67,5.67,0,0,0,2.32-3.7,5.67,5.67,0,0,0,2.32,3.7,3.37,3.37,0,0,0,.73.32A8.81,8.81,0,0,1,11.38,19.25Zm-6.9-9.07a4.4,4.4,0,0,0,.64.47,4.18,4.18,0,0,0,2.13.52,8.08,8.08,0,0,0,2.24-.36,5.66,5.66,0,0,0-2,3.86,3.48,3.48,0,0,0,.09.79,8.81,8.81,0,0,1-4.41-1A8.67,8.67,0,0,1,4.48,10.18Zm12.85-.07c-1.67,1-4.13.09-5.23-.39,1.1-.49,3.56-1.36,5.23-.4a3,3,0,0,1,.53.4A2.9,2.9,0,0,1,17.33,10.11ZM4.9,9.72a3,3,0,0,1,.53-.4c1.66-1,4.13-.09,5.23.4-1.1.48-3.57,1.36-5.23.39A2.9,2.9,0,0,1,4.9,9.72Zm3.16,4.95c0-1.92,2-3.62,3-4.33-.13,1.19-.6,3.77-2.27,4.73a3.29,3.29,0,0,1-.61.26A3,3,0,0,1,8.06,14.67Zm5.95.4c-1.67-1-2.14-3.54-2.27-4.73,1,.71,3,2.4,3,4.33a3,3,0,0,1-.08.66A3.29,3.29,0,0,1,14,15.07Zm-.74-4.26a8.08,8.08,0,0,0,2.24.36,4.28,4.28,0,0,0,2.13-.52,4.4,4.4,0,0,0,.64-.47,8.67,8.67,0,0,1,1.36,4.31,8.84,8.84,0,0,1-4.41,1,3.48,3.48,0,0,0,.09-.79A5.66,5.66,0,0,0,13.27,10.81Zm5-1.55a3.82,3.82,0,0,0-.64-.48,5.72,5.72,0,0,0-4.37-.16,5.66,5.66,0,0,0,2.05-3.86A3.48,3.48,0,0,0,15.23,4a8.72,8.72,0,0,1,4.41,1A8.73,8.73,0,0,1,18.28,9.26ZM14.7,4.76c0,1.93-2,3.62-3,4.34.13-1.2.6-3.78,2.27-4.74a3.29,3.29,0,0,1,.61-.26A3,3,0,0,1,14.7,4.76Zm-5.95-.4c1.67,1,2.14,3.54,2.27,4.73-1-.71-3-2.4-3-4.33a3,3,0,0,1,.08-.66A3.29,3.29,0,0,1,8.75,4.36Zm.74,4.26a5.76,5.76,0,0,0-4.37.16,3.82,3.82,0,0,0-.64.48A8.73,8.73,0,0,1,3.12,5,8.69,8.69,0,0,1,7.53,4a3.48,3.48,0,0,0-.09.79A5.66,5.66,0,0,0,9.49,8.62ZM4.05,9.72a8.2,8.2,0,0,0-1.46,3.85,9.58,9.58,0,0,1,0-7.71A8.27,8.27,0,0,0,4.05,9.72Zm-.4,5.68a9.19,9.19,0,0,0,3.28.72,5.25,5.25,0,0,0,.79-.06,8.27,8.27,0,0,0,2.61,3.2A9.61,9.61,0,0,1,3.65,15.4Zm8.78,3.86A8.27,8.27,0,0,0,15,16.06a5.16,5.16,0,0,0,.79.06,9.19,9.19,0,0,0,3.28-.72A9.63,9.63,0,0,1,12.43,19.26Zm7.74-5.69A8.12,8.12,0,0,0,18.7,9.72a8.19,8.19,0,0,0,1.47-3.86,9.58,9.58,0,0,1,0,7.71ZM19.11,4A8.23,8.23,0,0,0,15,3.37,8.16,8.16,0,0,0,12.43.18,9.59,9.59,0,0,1,19.11,4ZM10.33.18A8.16,8.16,0,0,0,7.72,3.37,8.34,8.34,0,0,0,3.65,4,9.57,9.57,0,0,1,10.33.18Z"/></g></svg>