<svg xmlns="http://www.w3.org/2000/svg" viewBox="0 0 24.94 34.96"><defs><style>.cls-1{fill:#fff;}</style></defs><title>Location</title><g id="Layer_2" data-name="Layer 2"><g id="Layer_2-2" data-name="Layer 2"><path class="cls-1" d="M23.44,12c0,5.8-4.92,21.5-11,21.5s-11-15.7-11-21.5a10.76,10.76,0,0,1,11-10.5A10.75,10.75,0,0,1,23.44,12Z"/><path d="M21.94,12c0,4.65-1.73,9.65-3.75,13.78-1,1.95-2.12,4.15-3.9,5.48a2.74,2.74,0,0,1-3.71,0c-1.81-1.36-3-3.61-3.95-5.6a41.25,41.25,0,0,1-2.7-7.56A23.36,23.36,0,0,1,3,11.8,8.91,8.91,0,0,1,7.09,4.54c6-3.85,14.73,0,14.85,7.43,0,1.93,3,1.94,3,0C24.81,4.14,17.3-1.25,9.79.25A12.46,12.46,0,0,0,1.41,6.34,13.39,13.39,0,0,0,.27,15.25C1.18,21,3.27,27.38,7,31.9c1.46,1.76,3.54,3.3,6,3,2.61-.28,4.54-2.39,5.95-4.44A35.14,35.14,0,0,0,23.26,21a31.68,31.68,0,0,0,1.68-9A1.5,1.5,0,0,0,21.94,12Z"/><circle class="cls-1" cx="12.44" cy="12.47" r="5"/><path d="M8.94,12.47c0-.14,0-.27,0-.41,0-.3,0-.08,0,0q.06-.33.15-.66c0-.12.09-.25.14-.37,0,.06-.13.23,0,0s.25-.46.4-.68-.12.13.05-.05a2.57,2.57,0,0,1,.21-.24c.07-.08.53-.47.29-.29a3.84,3.84,0,0,1,.54-.35L11,9.29c.15-.08.15-.08,0,0l.19-.07A4.67,4.67,0,0,1,11.82,9c.08,0,.37-.06.07,0l.35,0a5.3,5.3,0,0,1,.69,0c.26,0-.34-.08.07,0l.4.09.38.13h0a5.33,5.33,0,0,1,.58.31l.27.19c.2.14-.24-.24,0,0s.37.36.55.56c-.18-.21,0-.05,0,0s.15.22.21.33.32.63.2.35a4.65,4.65,0,0,1,.21.63l.06.26c0,.18,0,.18,0,0a1.49,1.49,0,0,1,0,.21,4.26,4.26,0,0,1,0,.62c0,.05-.07.49,0,.15,0,.09,0,.18,0,.27s-.12.42-.19.64c-.13.39.14-.23-.06.12a3.9,3.9,0,0,1-.19.35c0,.09-.11.18-.17.27s-.23.28,0,.06a5,5,0,0,1-.45.47s-.32.28-.15.14-.17.12-.16.11a4.7,4.7,0,0,1-.69.39c.06,0,.27-.09,0,0s-.25.09-.38.12l-.26.07s-.43.07-.21,0l-.21,0H12c-.36,0,.17.05-.14,0l-.78-.22c-.39-.13.16.08-.06,0s-.28-.14-.41-.22l-.22-.14a1.37,1.37,0,0,1-.21-.15c.13.1.13.1,0,0l-.46-.46c-.29-.29.13.23-.09-.1l-.22-.33-.18-.35c-.16-.27.05.2-.06-.12S9.05,13.3,9,13c0,0,0-.29,0,0a5.27,5.27,0,0,1,0-.56,1.5,1.5,0,1,0-3,0,6.61,6.61,0,0,0,4.31,6.12,6.5,6.5,0,0,0,7.14-1.91A6.58,6.58,0,0,0,18,9.16a6.51,6.51,0,0,0-12.1,3.31,1.5,1.5,0,0,0,3,0Z"/></g></g></svg>