<svg xmlns="http://www.w3.org/2000/svg" viewBox="0 0 24 24"><defs><style>.cls-1,.cls-2{fill:none;stroke:#000;stroke-miterlimit:10;stroke-width:2px;}.cls-2{stroke-linecap:round;}</style></defs><title>Artboard 7</title><g id="Layer_2" data-name="Layer 2"><path d="M25,2a2,2,0,0,1,2,2V20a2,2,0,0,1-2,2H-1a2,2,0,0,1-2-2V4A2,2,0,0,1-1,2H25m0-2H-1A4,4,0,0,0-5,4V20a4,4,0,0,0,4,4H25a4,4,0,0,0,4-4V4a4,4,0,0,0-4-4Z"/><path class="cls-1" d="M4.54,7.9,5.6,10a.35.35,0,0,0,.28.2l2.36.35a.37.37,0,0,1,.21.63L6.74,12.89a.35.35,0,0,0-.11.32L7,15.57A.37.37,0,0,1,6.5,16L4.38,14.85a.34.34,0,0,0-.34,0L1.93,16a.37.37,0,0,1-.54-.39l.4-2.36a.37.37,0,0,0-.1-.32L0,11.22a.37.37,0,0,1,.2-.63l2.37-.35a.33.33,0,0,0,.27-.2L3.88,7.9A.36.36,0,0,1,4.54,7.9Z"/><line class="cls-2" x1="13" y1="10" x2="24" y2="10"/><line class="cls-2" x1="13" y1="14" x2="24" y2="14"/></g></svg>