<svg xmlns="http://www.w3.org/2000/svg" viewBox="0 0 24 24"><defs><style>.cls-1,.cls-2{fill:none;stroke:#000;stroke-miterlimit:10;}.cls-1{stroke-width:2px;}.cls-2{stroke-linecap:round;}</style></defs><title>Artboard 6</title><g id="Layer_2" data-name="Layer 2"><path d="M18.31,2a.61.61,0,0,1,.61.61V21.39a.61.61,0,0,1-.61.61H6a.62.62,0,0,1-.62-.61V2.61A.62.62,0,0,1,6,2H18.31m0-2H6A2.61,2.61,0,0,0,3.42,2.61V21.39A2.61,2.61,0,0,0,6,24H18.31a2.61,2.61,0,0,0,2.61-2.61V2.61A2.61,2.61,0,0,0,18.31,0Z"/><line class="cls-1" x1="4.17" y1="18" x2="20.17" y2="18"/><line class="cls-1" x1="5.17" y1="4" x2="19.17" y2="4"/><path class="cls-2" d="M7.67,10a7.5,7.5,0,0,1,9,0"/><path class="cls-2" d="M8.89,11.8a5.47,5.47,0,0,1,6.57,0"/><path class="cls-2" d="M10.53,13.52a2.73,2.73,0,0,1,3.28,0"/><line class="cls-2" x1="10.17" y1="20.5" x2="14.17" y2="20.5"/></g></svg>