<svg xmlns="http://www.w3.org/2000/svg" viewBox="0 0 24 24"><title>Artboard 13</title><g id="Layer_2" data-name="Layer 2"><path d="M15.49,10.16v9.42a.89.89,0,0,1-.88.88H10.34a.89.89,0,0,1-.88-.88V10.16A2.16,2.16,0,0,1,11.62,8h1.71A2.15,2.15,0,0,1,15.49,10.16ZM13.3,8.72H11.67a1.54,1.54,0,0,0-1.54,1.55v8.94a.5.5,0,0,0,.5.51h3.74a.51.51,0,0,0,.51-.51V10.29A1.61,1.61,0,0,0,13.3,8.72Z"/><path d="M10.5,15.63v3.26a.29.29,0,0,0,.29.29h3.37a.29.29,0,0,0,.29-.29V15.63Z"/><rect x="11.35" y="6.9" width="2.3" height="0.83"/><path d="M13.41,4H11.57a.22.22,0,0,0-.22.22v.53l.27.56-.27.56v.75h2.3V4.21A.29.29,0,0,0,13.41,4Z"/><path d="M6.17,5.49h3.5a.18.18,0,0,0,.19-.19V5.14A.18.18,0,0,0,9.67,5H6.17A.18.18,0,0,0,6,5.14V5.3A.22.22,0,0,0,6.17,5.49Z"/><path d="M6.68,3.14,9.94,4.45c.1,0,.21,0,.24-.11l.05-.13c0-.11,0-.22-.1-.24L6.87,2.66c-.11,0-.22,0-.24.1l-.06.14A.21.21,0,0,0,6.68,3.14Z"/><path d="M6.87,7.7l3.26-1.2a.16.16,0,0,0,.1-.24l-.05-.16A.17.17,0,0,0,9.94,6L6.68,7.22a.17.17,0,0,0-.11.24l.06.16A.16.16,0,0,0,6.87,7.7Z"/><rect x="12.1" y="8.66" width="0.77" height="7.07"/><path d="M21.55,2.23a13.22,13.22,0,1,0,0,18.69A13.24,13.24,0,0,0,21.55,2.23ZM4,3.41a11.53,11.53,0,0,1,15.59-.67L3.37,19A11.55,11.55,0,0,1,4,3.41ZM20.38,19.74a11.54,11.54,0,0,1-15.7.56L21,4A11.6,11.6,0,0,1,20.38,19.74Z"/></g></svg>