<svg xmlns="http://www.w3.org/2000/svg" viewBox="0 0 24 24"><defs><style>.cls-1{stroke:#000;stroke-miterlimit:10;stroke-width:0.5px;}</style></defs><title>Phone</title><g id="Layer_2" data-name="Layer 2"><path class="cls-1" d="M23.41,17.6l-3-3a2.49,2.49,0,0,0-1.86-.85,2.59,2.59,0,0,0-1.85.85l-1.75,1.74c-.14-.09-.29-.15-.43-.23s-.38-.21-.55-.29a18.3,18.3,0,0,1-4.5-4.1A9.65,9.65,0,0,1,8,9.35c.43-.41.87-.84,1.27-1.25l.47-.46a2.74,2.74,0,0,0,.87-1.89,2.65,2.65,0,0,0-.87-1.89L8.23,2.35c-.18-.17-.35-.35-.5-.52-.32-.35-.66-.7-1-1A2.61,2.61,0,0,0,4.89,0,2.71,2.71,0,0,0,3,.81L1.14,2.7A4,4,0,0,0,0,5.23a10.21,10.21,0,0,0,.7,4.06,23.37,23.37,0,0,0,4.18,7A25.89,25.89,0,0,0,13.4,23a12.93,12.93,0,0,0,4.82,1.42h.34a4.09,4.09,0,0,0,3.14-1.36l0,0a9.92,9.92,0,0,1,1-1,5.27,5.27,0,0,0,.72-.7A2.52,2.52,0,0,0,23.41,17.6Zm-1.07,2.75c-.18.24-1.37,1.37-1.69,1.78a2.6,2.6,0,0,1-2.06.87h-.26A13.17,13.17,0,0,1,14,21.69,24.48,24.48,0,0,1,6,15.36,22.6,22.6,0,0,1,2,8.8,7.74,7.74,0,0,1,1.4,5.37a2.62,2.62,0,0,1,.76-1.62L4,1.89a1.22,1.22,0,0,1,.84-.41,1.19,1.19,0,0,1,.84.41c.35.32.64.64,1,1l.52.53L8.69,4.88a1.26,1.26,0,0,1,.44.87,1.26,1.26,0,0,1-.44.87l-.46.46c-.47.47-.9.91-1.37,1.34l0,0a1.14,1.14,0,0,0-.29,1.22s0,0,0,.06A11.35,11.35,0,0,0,8.34,12.6,20.34,20.34,0,0,0,13.19,17c.23.14.47.26.67.37s.38.21.55.29,0,0,.06,0a1.14,1.14,0,0,0,.52.15,1.17,1.17,0,0,0,.82-.38l1.88-1.89a1.34,1.34,0,0,1,.84-.4,1.33,1.33,0,0,1,.82.4l3,3A1.11,1.11,0,0,1,22.34,20.35Z"/></g></svg>