<svg xmlns="http://www.w3.org/2000/svg" viewBox="0 0 24 24"><title>Shop</title><g id="Layer_2" data-name="Layer 2"><path d="M17.47,24H5.78a3.57,3.57,0,0,1-3.65-3.49V7.22a2.36,2.36,0,0,1,2.4-2.3H18.72a2.36,2.36,0,0,1,2.4,2.3V20.51A3.57,3.57,0,0,1,17.47,24ZM4.53,6.58a.66.66,0,0,0-.66.64V20.51a1.87,1.87,0,0,0,1.91,1.83H17.47a1.87,1.87,0,0,0,1.91-1.83V7.22a.66.66,0,0,0-.66-.64Z"/><path d="M15.46,9.58a.87.87,0,0,1-.87-.87V2.83a1,1,0,0,0-1-1h-4a1,1,0,0,0-1,1V8.71a.87.87,0,0,1-1.74,0V2.83A2.71,2.71,0,0,1,9.62.13h4a2.71,2.71,0,0,1,2.7,2.7V8.71A.87.87,0,0,1,15.46,9.58Z"/></g></svg>