<svg xmlns="http://www.w3.org/2000/svg" viewBox="0 0 50.94 61.85"><title>Asset 8</title><g id="Layer_2" data-name="Layer 2"><g id="Layer_2-2" data-name="Layer 2"><path d="M26.77,35.34l7.29-3.29a5.45,5.45,0,0,0,.55-.25c.5-.28-.23.45-.54.12.09.11.76.08.9.1l4.38.46L44,33a5.59,5.59,0,0,0,2.84-.11,3.51,3.51,0,0,0,.89-6A5.75,5.75,0,0,0,44.9,26l-8.82-1.53,1.1,1.45,0-1.09-.74,1.29c4.06-1.76,8.11-3.54,12.17-5.29l.28-.13c.31-.13-.57.3,0,0a3.63,3.63,0,0,0,2-2.39A3.52,3.52,0,0,0,47.07,14a7.81,7.81,0,0,0-2,.63l-3.77,1.46-6.8,2.64,1.84,1.05-.19-.8-.69,1.7,11-8.5A3.68,3.68,0,0,0,48.05,8,3.54,3.54,0,0,0,42.7,6.32c-1.76,1.16-3.41,2.51-5.11,3.76L31.3,14.72h1.51l-.8-.55.54,2,5.64-7.66c.7-1,1.39-1.9,2.09-2.84.06-.09.17-.26,0,0a4.31,4.31,0,0,0,.53-.87,3.45,3.45,0,0,0,.17-2.37A3.56,3.56,0,0,0,37.37,0l1.29.74h0A1.59,1.59,0,0,0,37,.05a3.57,3.57,0,0,0-1.82.9c-.18.18-.86,1.29-.43.61s.21-.3.13-.23a7.1,7.1,0,0,0-.8,1L30.59,6.67,27,11.24c-.38.49-.79,1-1.15,1.45a3.65,3.65,0,0,0-.26.32c.07-.12.4-.25-.05,0a18.8,18.8,0,0,0-2.59,1.54c-.17.13-.53.2.12,0s.09-.06-.11-.06c-.47,0-.94.07-1.41.11l1.06.44-1-1.06L22,15.08c0-1.7,0-3.45-.12-5.14s-.46-3.35-.73-5a1.51,1.51,0,0,0-1.45-1.1h0l1.5,1.5A3.45,3.45,0,0,0,18,2.06a3.52,3.52,0,0,0-3.76,3.22,17,17,0,0,0,.14,2.57l.12,1.7a2.45,2.45,0,0,0,0,.54c.1.27.09-.52,0-.16-.23,1.8-.69,3.59-.8,5.4s-.06,3.81-.08,5.7l-.09,6c0,1.93,3,1.93,3,0l.15-10.17c0-.51,0-1,0-1.55,0-.14,0,.23,0-.09s.13-.86.2-1.28a20.25,20.25,0,0,0,.52-4.5c-.08-1.11-.17-2.21-.23-3.31a1.87,1.87,0,0,1,0-.78c.23-.47.94-.31.94,0a1.52,1.52,0,0,0,1.5,1.5h0l-1.44-1.1a42.1,42.1,0,0,1,.67,6.15c0,1.07-.29,3,.28,3.94a5.43,5.43,0,0,0,1.25,1.37c.7.57,1.41.41,2.25.35a7.65,7.65,0,0,0,3.46-1.44A6.15,6.15,0,0,0,28,14.78L33,8.41l3-3.83.8-1L37,3.39l.24-.31c.2-.48.2-.48,0,0a1.41,1.41,0,0,1,.5-.12l-1.7-.69a2,2,0,0,0,.54.54c.38.21.76.05,1.11.21.54.25.34.6.12,1-.13.21-.28.4-.43.6L34.84,8.07,30,14.71a1.52,1.52,0,0,0,.54,2.05l.8.56a1.46,1.46,0,0,0,1.51,0L43.35,9.54a6.46,6.46,0,0,1,1.08-.78c1-.38.84.48.44.94.29-.34,0,0-.15.12l-5.6,4.31-5.17,4a1.58,1.58,0,0,0-.69,1.69l.2.8a1.51,1.51,0,0,0,1.84,1L46.51,17.3c.47-.18,1.62-.64,1.4.35-.08.34-.89.57-1.3.74l-6.46,2.82L34.9,23.49a1.48,1.48,0,0,0-.75,1.3l0,1.09a1.51,1.51,0,0,0,1.1,1.44l6.95,1.21c1,.18,2.12.31,3.16.55.83.19.89,1-.06,1a19.83,19.83,0,0,1-2.66-.28L38,29.34c-1.17-.12-2.36-.3-3.54-.38a3.69,3.69,0,0,0-1.8.44l-7.42,3.35c-1.76.79-.24,3.37,1.51,2.59Z"/><path d="M29,21.53c1.34,0,0,1.23-.43,1.57-.83.66-1.65,1.33-2.49,2a9.64,9.64,0,0,1-1.11.69l-2.88,1.75a2.76,2.76,0,0,0-1.49,1.73,5.83,5.83,0,0,0-.33,1.43,2.74,2.74,0,0,0,.67,1.45,4.89,4.89,0,0,0,1.72,1.75c.85.47,1.7,1,2.59,1.45a13.61,13.61,0,0,0,3.49.63l6.91,1c1.58.24,3.23.37,4.79.72a1.56,1.56,0,0,1,.44.08.54.54,0,0,1,.29.68c-.13.29-.79.3-.47.31-.45,0-1-.12-1.41-.17L27.2,37.28c-.85-.1-1.45.76-1.5,1.5l-.07.94a1.46,1.46,0,0,0,.74,1.3l12.19,5.36c.38.16,1.47.47,1.53.95.11,1-1,.44-1.39.25L32,44.79l-6-2.51a1.49,1.49,0,0,0-1.46.39l-.6.6a1.51,1.51,0,0,0,0,2.13c3.14,2.51,6.3,5,9.42,7.54.36.3,1.32,1,.49,1.36-.29.12-.43-.06-.67-.17.42.2-.09-.09-.23-.2l-.45-.33-5.43-4-4.89-3.63a1.46,1.46,0,0,0-1.52,0l-.91.6a1.53,1.53,0,0,0-.69,1.7l2.86,7.82c.18.47,1,1.95.77,2.5-.57,1.2-1.31-.88-1.5-1.31l-3.86-8.62a3.62,3.62,0,0,0-1.32-1.58l-3.82-2.83L8.49,41.55a5.09,5.09,0,0,0-3.06-.63c-1.35-.07-1.69.07-1.81-1.25l-.48-5.13c-.06-.76-.57-2.47.26-2.87A14,14,0,0,1,6.23,31l5.23-1.23c1-.24,2.13-.4,3.14-.73a26.55,26.55,0,0,0,3.8-2,22.84,22.84,0,0,1,3.06-1.44A19.61,19.61,0,0,0,25.32,24l2.28-1.55a4.5,4.5,0,0,1,1.78-.94,1.53,1.53,0,0,0,1.05-1.85h0c-.41-1.88-3.3-1.09-2.89.8h0l1.05-1.85c-1.64.28-3.14,1.68-4.48,2.59a4.48,4.48,0,0,0-.64.43c-.27.26.53-.17,0,0-.87.32-1.72.67-2.59,1a53.71,53.71,0,0,0-7.37,3.65c.59-.34-.07,0-.43.05l-2.1.49-5.55,1.3a30.77,30.77,0,0,0-3.15.77c-2,.73-2.42,2.6-2.24,4.48L.55,39c.15,1.67.2,3.44,1.86,4.41a4.79,4.79,0,0,0,2.36.51A10.62,10.62,0,0,0,7.24,44c-.36.6-1-.55-.52,0a3.12,3.12,0,0,0,.47.34l2,1.51,4.46,3.29a7.27,7.27,0,0,0,1.15.85c.32.15-.42-.74-.46-.44,0,.12.19.42.24.53l4.06,9.07.27.6c.16.36-.47-.66.12.27a3.56,3.56,0,0,0,3.8,1.8c2.38-.52,3.2-2.9,2.43-5-1.15-3.11-2.28-6.22-3.42-9.33l-.69,1.69.92-.6H20.59c3.54,2.62,7.13,5.18,10.61,7.87.39.3-.46-.26.4.32a3.58,3.58,0,0,0,3.13.43,3.51,3.51,0,0,0,1.59-5.46c-1.18-1.49-3.09-2.62-4.56-3.8L26,43.27V45.4l.6-.61-1.46.39q6.53,2.7,13.06,5.42l.15.06c-.84-.35.52.15.68.18a3.5,3.5,0,0,0,2.09-6.6c-2-1-4.19-1.84-6.27-2.75l-7-3.07.75,1.3.07-.94-1.5,1.5,8.06.88,4.32.48.47,0c.31,0-.49,0,0,0a3.62,3.62,0,0,0,3.52-1.45,3.52,3.52,0,0,0-2.19-5.41c-.94-.21-1.92-.29-2.87-.43L28.23,32.87a10.65,10.65,0,0,0-1.57-.24l-.24,0c.47,0,.39.23.19.06a3.56,3.56,0,0,0-.6-.34l-1.26-.71c-.25-.13-.81-.61-1.09-.61s.55.35.44.47-.36-.53-.38-.56l-.66-1,.15,1.15.38-1.45-.68.9a56.93,56.93,0,0,0,5.89-3.81,15.46,15.46,0,0,0,3.1-2.65A3.52,3.52,0,0,0,29,18.53C27.05,18.47,27.06,21.47,29,21.53Z"/></g></g></svg>