<svg xmlns="http://www.w3.org/2000/svg" viewBox="0 0 24 24"><title>Artboard 5</title><g id="Layer_2" data-name="Layer 2"><path d="M25,2a2,2,0,0,1,2,2V20a2,2,0,0,1-2,2H-1a2,2,0,0,1-2-2V4A2,2,0,0,1-1,2H25m0-2H-1A4,4,0,0,0-5,4V20a4,4,0,0,0,4,4H25a4,4,0,0,0,4-4V4a4,4,0,0,0-4-4Z"/><path d="M12,15a1,1,0,0,1-.62-.22l-15-12a1,1,0,0,1-.16-1.4,1,1,0,0,1,1.4-.16L12,12.7,25.35,1.24a1,1,0,0,1,1.3,1.52l-14,12A1,1,0,0,1,12,15Z"/><path d="M-3,23a1,1,0,0,1-.67-.26,1,1,0,0,1-.07-1.41l10-11a1,1,0,1,1,1.48,1.34l-10,11A1,1,0,0,1-3,23Z"/><path d="M27,23a1,1,0,0,1-.74-.33l-10-11a1,1,0,1,1,1.48-1.34l10,11a1,1,0,0,1-.07,1.41A1,1,0,0,1,27,23Z"/></g></svg>