<svg xmlns="http://www.w3.org/2000/svg" viewBox="0 0 35.04 25.06"><defs><style>.cls-1{fill:#fff;}.cls-2{fill:none;stroke:#000;stroke-miterlimit:10;stroke-width:2px;}</style></defs><title>Asset 6</title><g id="Layer_2" data-name="Layer 2"><g id="Layer_2-2" data-name="Layer 2"><path class="cls-1" d="M29.52,12.53a4.27,4.27,0,0,0,4,4.5v2.5a4,4,0,0,1-4,4h-24a4,4,0,0,1-4-4V17a4.27,4.27,0,0,0,4-4.5,4.27,4.27,0,0,0-4-4.5V5.53a4,4,0,0,1,4-4h24a4,4,0,0,1,4,4V8A4.27,4.27,0,0,0,29.52,12.53Z"/><path class="cls-1" d="M28,12.53c.11,3.16,2.22,5.85,5.5,6L32,17c0,1.22.29,2.89-.46,3.94A2.78,2.78,0,0,1,29.12,22H6.34a3.41,3.41,0,0,1-2.47-.62C2.67,20.36,3,18.46,3,17l-1.5,1.5a5.85,5.85,0,0,0,5.5-6,5.86,5.86,0,0,0-5.5-6L3,8c0-1.22-.29-2.89.46-3.94A2.78,2.78,0,0,1,5.92,3H28.7a3.41,3.41,0,0,1,2.47.62C32.37,4.71,32,6.6,32,8l1.5-1.5c-3.27.15-5.39,2.85-5.5,6-.07,1.93,2.93,1.93,3,0a2.83,2.83,0,0,1,2.5-3A1.53,1.53,0,0,0,35,8c0-1.64.18-3.37-.55-4.89a5.64,5.64,0,0,0-5-3.11c-2-.07-4,0-6.05,0C17.54,0,11.66,0,5.79,0A5.7,5.7,0,0,0,1.08,2.31C-.17,4,0,6,0,8a1.53,1.53,0,0,0,1.5,1.5c3.3.15,3.3,5.85,0,6A1.53,1.53,0,0,0,0,17c0,1.64-.18,3.37.55,4.89a5.62,5.62,0,0,0,5,3.11c2,.07,4,0,6.06,0,5.87,0,11.75.07,17.62,0A5.7,5.7,0,0,0,34,22.75C35.21,21,35,19,35,17a1.53,1.53,0,0,0-1.5-1.5,2.83,2.83,0,0,1-2.5-3C31,10.61,28,10.6,28,12.53Z"/><path d="M28,12.53c.11,3.16,2.22,5.85,5.5,6L32,17c0,1.22.29,2.89-.46,3.94A2.78,2.78,0,0,1,29.12,22H6.34a3.41,3.41,0,0,1-2.47-.62C2.67,20.36,3,18.46,3,17l-1.5,1.5a5.85,5.85,0,0,0,5.5-6,5.86,5.86,0,0,0-5.5-6L3,8c0-1.22-.29-2.89.46-3.94A2.78,2.78,0,0,1,5.92,3H28.7a3.41,3.41,0,0,1,2.47.62C32.37,4.71,32,6.6,32,8l1.5-1.5c-3.27.15-5.39,2.85-5.5,6-.07,1.93,2.93,1.93,3,0a2.83,2.83,0,0,1,2.5-3A1.53,1.53,0,0,0,35,8c0-1.64.18-3.37-.55-4.89a5.64,5.64,0,0,0-5-3.11c-2-.07-4,0-6.05,0C17.54,0,11.66,0,5.79,0A5.7,5.7,0,0,0,1.08,2.31C-.17,4,0,6,0,8a1.53,1.53,0,0,0,1.5,1.5c3.3.15,3.3,5.85,0,6A1.53,1.53,0,0,0,0,17c0,1.64-.18,3.37.55,4.89a5.62,5.62,0,0,0,5,3.11c2,.07,4,0,6.06,0,5.87,0,11.75.07,17.62,0A5.7,5.7,0,0,0,34,22.75C35.21,21,35,19,35,17a1.53,1.53,0,0,0-1.5-1.5,2.83,2.83,0,0,1-2.5-3C31,10.61,28,10.6,28,12.53Z"/><line class="cls-2" x1="22.52" y1="1.53" x2="22.52" y2="23.53"/></g></g></svg>