<svg xmlns="http://www.w3.org/2000/svg" viewBox="0 0 24 24"><title>Twitter</title><g id="Layer_2" data-name="Layer 2"><path d="M6.13,24c11.15,0,17.24-9.23,17.24-17.24,0-.26,0-.53,0-.79a12.35,12.35,0,0,0,3-3.13,12.07,12.07,0,0,1-3.48,1A6.1,6.1,0,0,0,25.56.44a12.09,12.09,0,0,1-3.85,1.47A6.06,6.06,0,0,0,11.39,7.44,17.22,17.22,0,0,1-1.1,1.11,6.07,6.07,0,0,0,.77,9.2,6.07,6.07,0,0,1-2,8.44v.07a6.06,6.06,0,0,0,4.86,5.94,6,6,0,0,1-2.73.11,6.06,6.06,0,0,0,5.66,4.21,12.24,12.24,0,0,1-7.53,2.6,13.91,13.91,0,0,1-1.44-.09A17.19,17.19,0,0,0,6.13,24"/></g></svg>