<svg xmlns="http://www.w3.org/2000/svg" viewBox="0 0 24 24"><title>Artboard 9</title><g id="Layer_2" data-name="Layer 2"><path d="M35.09,10.87a41.12,41.12,0,0,0-8.53-7.15c-.56-.34-1.12-.66-1.68-1a24.79,24.79,0,0,0-11.52-3c-7.55,0-15,3.57-21.71,10.52a3.19,3.19,0,0,0,0,4.32A31.65,31.65,0,0,0,5.88,23c.7.19,1.42.35,2.14.47a27,27,0,0,0,5.16.49h.35c7.92-.09,15.58-3.62,21.55-9.94A2.34,2.34,0,0,0,35.09,10.87ZM33.72,12.7C28.1,18.64,20.92,22,13.51,22.05h-.33a24.16,24.16,0,0,1-3.61-.26,20.72,20.72,0,0,1-2.2-.4A29.45,29.45,0,0,1-7,13.26a1.19,1.19,0,0,1-.32-.84A1.22,1.22,0,0,1-7,11.58C-.74,5.06,6.23,1.63,13.16,1.63h.18A22.83,22.83,0,0,1,23.53,4.2c.57.28,1.14.59,1.7.93a38,38,0,0,1,8.48,7A.47.47,0,0,1,33.72,12.7Z"/><path d="M20.1,10.59a6.51,6.51,0,0,0-.71-2A7,7,0,0,0,13.25,5a6.91,6.91,0,0,0-7,6.82,6.8,6.8,0,0,0,4.2,6.25,6.63,6.63,0,0,0,2.09.53l2-2.08a4.86,4.86,0,0,1-1.27.16,5,5,0,0,1-1.3-.17,4.87,4.87,0,0,1-3.71-4.69,4.93,4.93,0,0,1,5-4.85,5,5,0,0,1,4.69,3.16,4.5,4.5,0,0,1,.32,1.69,4.15,4.15,0,0,1-.07.79Z"/><path d="M30.39-.36,26.56,3.72,25.23,5.13,20.1,10.59l-1.91,2-3.67,3.91-2,2.08-3,3.18L8,23.45l-4.51,4.8a1,1,0,0,1-.69.3A.95.95,0,0,1,2.14,27l3.74-4L7.37,21.4l3.1-3.31L12,16.53l6-6.38,1.45-1.54L23.53,4.2l1.35-1.43L29-1.64a.94.94,0,0,1,1.33,0A.92.92,0,0,1,30.39-.36Z"/></g></svg>