<svg xmlns="http://www.w3.org/2000/svg" viewBox="0 0 35.09 25.06"><defs><style>.cls-1{fill:#fff;}</style></defs><title>Asset 5</title><g id="Layer_2" data-name="Layer 2"><g id="Layer_2-2" data-name="Layer 2"><rect class="cls-1" x="1.52" y="1.54" width="32" height="22" rx="2.57"/><path d="M31,22H6a9.1,9.1,0,0,1-2.15,0C2.7,21.71,3,20,3,19.12V7A23.71,23.71,0,0,1,3,4.11C3.18,2.86,4.34,3,5.27,3H22.63c2.71,0,5.52-.22,8.22,0,1.2.1,1.17,1,1.17,1.94v5.11c0,3.55.19,7.15,0,10.69C32,21.44,31.71,22,31,22c-1.91.12-1.93,3.12,0,3A4.24,4.24,0,0,0,35,20.47V15.23c0-3.68.15-7.4,0-11.08A4.17,4.17,0,0,0,30.79,0c-1.13,0-2.27,0-3.4,0H13.83C10.64,0,7.43,0,4.24,0A4.19,4.19,0,0,0,0,4.15c0,1.33,0,2.67,0,4V20.47A4.24,4.24,0,0,0,4.09,25c.78,0,1.57,0,2.35,0H31A1.5,1.5,0,0,0,31,22Z"/><polygon points="14.52 7.34 14.52 17.74 23.52 12.54 14.52 7.34"/></g></g></svg>